<svg xmlns="http://www.w3.org/2000/svg" width="22" height="22" viewBox="0 0 22 22" fill="none">
  <path d="M20.1391 16.8024C20.1391 17.1324 20.0658 17.4716 19.91 17.8016C19.7541 18.1316 19.5525 18.4433 19.2866 18.7366C18.8375 19.2316 18.3425 19.5891 17.7833 19.8183C17.2333 20.0474 16.6375 20.1666 15.9958 20.1666C15.0608 20.1666 14.0616 19.9466 13.0075 19.4974C11.9533 19.0483 10.8991 18.4433 9.85415 17.6824C8.79998 16.9124 7.80081 16.0599 6.84748 15.1158C5.90331 14.1624 5.05081 13.1633 4.28998 12.1183C3.53831 11.0733 2.93331 10.0283 2.49331 8.99242C2.05331 7.94742 1.83331 6.94825 1.83331 5.99492C1.83331 5.37159 1.94331 4.77575 2.16331 4.22575C2.38331 3.66659 2.73165 3.15325 3.21748 2.69492C3.80415 2.11742 4.44581 1.83325 5.12415 1.83325C5.38081 1.83325 5.63748 1.88825 5.86665 1.99825C6.10498 2.10825 6.31581 2.27325 6.48081 2.51159L8.60748 5.50909C8.77248 5.73825 8.89165 5.94909 8.97415 6.15075C9.05665 6.34325 9.10248 6.53575 9.10248 6.70992C9.10248 6.92992 9.03831 7.14992 8.90998 7.36075C8.79081 7.57159 8.61665 7.79159 8.39665 8.01159L7.69998 8.73575C7.59915 8.83659 7.55331 8.95575 7.55331 9.10242C7.55331 9.17575 7.56248 9.23992 7.58081 9.31325C7.60831 9.38659 7.63581 9.44159 7.65415 9.49659C7.81915 9.79909 8.10331 10.1933 8.50665 10.6699C8.91915 11.1466 9.35915 11.6324 9.83581 12.1183C10.3308 12.6041 10.8075 13.0533 11.2933 13.4658C11.77 13.8691 12.1641 14.1441 12.4758 14.3091C12.5216 14.3274 12.5766 14.3549 12.6408 14.3824C12.7141 14.4099 12.7875 14.4191 12.87 14.4191C13.0258 14.4191 13.145 14.3641 13.2458 14.2633L13.9425 13.5758C14.1716 13.3466 14.3916 13.1724 14.6025 13.0624C14.8133 12.9341 15.0241 12.8699 15.2533 12.8699C15.4275 12.8699 15.6108 12.9066 15.8125 12.9891C16.0141 13.0716 16.225 13.1908 16.4541 13.3466L19.4883 15.5008C19.7266 15.6658 19.8916 15.8583 19.9925 16.0874C20.0841 16.3166 20.1391 16.5458 20.1391 16.8024Z" fill="#191D31"/>
</svg>