<svg xmlns="http://www.w3.org/2000/svg" width="24" height="25" viewBox="0 0 24 25" fill="none">
  <path d="M15.58 12.4999C15.58 14.4799 13.98 16.0799 12 16.0799C10.02 16.0799 8.41998 14.4799 8.41998 12.4999C8.41998 10.5199 10.02 8.91992 12 8.91992C13.98 8.91992 15.58 10.5199 15.58 12.4999Z" stroke="#A7A9B7" stroke-width="1.5" stroke-linecap="round" stroke-linejoin="round"/>
  <path d="M12 20.7702C15.53 20.7702 18.82 18.6902 21.11 15.0902C22.01 13.6802 22.01 11.3102 21.11 9.90021C18.82 6.30021 15.53 4.22021 12 4.22021C8.47003 4.22021 5.18003 6.30021 2.89003 9.90021C1.99003 11.3102 1.99003 13.6802 2.89003 15.0902C5.18003 18.6902 8.47003 20.7702 12 20.7702Z" stroke="#A7A9B7" stroke-width="1.5" stroke-linecap="round" stroke-linejoin="round"/>
</svg>