<svg xmlns="http://www.w3.org/2000/svg" width="26" height="26" viewBox="0 0 26 26" fill="none">
  <path d="M13 2.16675C7.03079 2.16675 2.16663 7.03091 2.16663 13.0001C2.16663 18.9692 7.03079 23.8334 13 23.8334C18.9691 23.8334 23.8333 18.9692 23.8333 13.0001C23.8333 7.03091 18.9691 2.16675 13 2.16675ZM12.1875 8.66675C12.1875 8.22258 12.5558 7.85425 13 7.85425C13.4441 7.85425 13.8125 8.22258 13.8125 8.66675V14.0834C13.8125 14.5276 13.4441 14.8959 13 14.8959C12.5558 14.8959 12.1875 14.5276 12.1875 14.0834V8.66675ZM13.9966 17.7451C13.9425 17.8859 13.8666 17.9942 13.7691 18.1026C13.6608 18.2001 13.5416 18.2759 13.4116 18.3301C13.2816 18.3842 13.1408 18.4167 13 18.4167C12.8591 18.4167 12.7183 18.3842 12.5883 18.3301C12.4583 18.2759 12.3391 18.2001 12.2308 18.1026C12.1333 17.9942 12.0575 17.8859 12.0033 17.7451C11.9491 17.6151 11.9166 17.4742 11.9166 17.3334C11.9166 17.1926 11.9491 17.0517 12.0033 16.9217C12.0575 16.7917 12.1333 16.6726 12.2308 16.5642C12.3391 16.4667 12.4583 16.3909 12.5883 16.3367C12.8483 16.2284 13.1516 16.2284 13.4116 16.3367C13.5416 16.3909 13.6608 16.4667 13.7691 16.5642C13.8666 16.6726 13.9425 16.7917 13.9966 16.9217C14.0508 17.0517 14.0833 17.1926 14.0833 17.3334C14.0833 17.4742 14.0508 17.6151 13.9966 17.7451Z" fill="#FD683D"/>
</svg>