<svg xmlns="http://www.w3.org/2000/svg" width="22" height="22" viewBox="0 0 22 22" fill="none">
  <path d="M18.5258 7.1684L11.4675 11.2567C11.1833 11.4217 10.8258 11.4217 10.5325 11.2567L3.47412 7.1684C2.96995 6.87507 2.84162 6.18757 3.22662 5.75674C3.49245 5.45424 3.79495 5.20674 4.11579 5.03257L9.08412 2.28257C10.1475 1.68674 11.8708 1.68674 12.9341 2.28257L17.9025 5.03257C18.2233 5.20674 18.5258 5.4634 18.7916 5.75674C19.1583 6.18757 19.03 6.87507 18.5258 7.1684Z" fill="white"/>
  <path d="M10.4775 12.9617V19.2134C10.4775 19.9101 9.77169 20.3684 9.14836 20.0659C7.26002 19.1401 4.07919 17.4076 4.07919 17.4076C2.96086 16.7751 2.04419 15.1801 2.04419 13.8692V9.13922C2.04419 8.41505 2.80502 7.95672 3.42836 8.31422L10.0192 12.1367C10.2942 12.3109 10.4775 12.6226 10.4775 12.9617Z" fill="white"/>
  <path d="M11.5225 12.9617V19.2134C11.5225 19.9101 12.2283 20.3684 12.8516 20.0659C14.74 19.1401 17.9208 17.4076 17.9208 17.4076C19.0391 16.7751 19.9558 15.1801 19.9558 13.8692V9.13922C19.9558 8.41505 19.195 7.95672 18.5716 8.31422L11.9808 12.1367C11.7058 12.3109 11.5225 12.6226 11.5225 12.9617Z" fill="white"/>
</svg>