<svg xmlns="http://www.w3.org/2000/svg" width="25" height="24" viewBox="0 0 25 24" fill="none">
  <path d="M7.5 1.5H6.5C3.5 1.5 2.5 3.29 2.5 5.5V6.5V20.5C2.5 21.33 3.44 21.8 4.1 21.3L5.81 20.02C6.21 19.72 6.77 19.76 7.13 20.12L8.79 21.79C9.18 22.18 9.82 22.18 10.21 21.79L11.89 20.11C12.24 19.76 12.8 19.72 13.19 20.02L14.9 21.3C15.56 21.79 16.5 21.32 16.5 20.5V3.5C16.5 2.4 17.4 1.5 18.5 1.5H7.5ZM11.75 13.25H7.25C6.84 13.25 6.5 12.91 6.5 12.5C6.5 12.09 6.84 11.75 7.25 11.75H11.75C12.16 11.75 12.5 12.09 12.5 12.5C12.5 12.91 12.16 13.25 11.75 13.25ZM12.5 9.25H6.5C6.09 9.25 5.75 8.91 5.75 8.5C5.75 8.09 6.09 7.75 6.5 7.75H12.5C12.91 7.75 13.25 8.09 13.25 8.5C13.25 8.91 12.91 9.25 12.5 9.25Z" fill="#1D272F"/>
  <path d="M18.51 1.5V3C19.17 3 19.8 3.27 20.26 3.72C20.74 4.21 21 4.84 21 5.5V7.92C21 8.66 20.67 9 19.92 9H18V3.51C18 3.23 18.23 3 18.51 3V1.5ZM18.51 1.5C17.4 1.5 16.5 2.4 16.5 3.51V10.5H19.92C21.5 10.5 22.5 9.5 22.5 7.92V5.5C22.5 4.4 22.05 3.4 21.33 2.67C20.6 1.95 19.61 1.51 18.51 1.5C18.52 1.5 18.51 1.5 18.51 1.5Z" fill="#1D272F"/>
</svg>