<svg xmlns="http://www.w3.org/2000/svg" width="24" height="24" viewBox="0 0 24 24" fill="none">
  <path d="M8.49993 19H7.99993C3.9999 19 1.99988 18 1.99988 13V8C1.99988 4 3.9999 2 7.99993 2H16C20 2 22 4 22 8V13C22 17 20 19 16 19H15.5C15.19 19 14.89 19.15 14.7 19.4L13.2 21.4C12.54 22.28 11.46 22.28 10.8 21.4L9.29994 19.4C9.13994 19.18 8.76994 19 8.49993 19Z" stroke="#1D272F" stroke-width="1.5" stroke-miterlimit="10" stroke-linecap="round" stroke-linejoin="round"/>
  <path d="M15.9965 11H16.0054" stroke="#1D272F" stroke-width="2" stroke-linecap="round" stroke-linejoin="round"/>
  <path d="M11.9954 11H12.0043" stroke="#1D272F" stroke-width="2" stroke-linecap="round" stroke-linejoin="round"/>
  <path d="M7.99439 11H8.00337" stroke="#1D272F" stroke-width="2" stroke-linecap="round" stroke-linejoin="round"/>
</svg>