<svg xmlns="http://www.w3.org/2000/svg" width="24" height="24" viewBox="0 0 24 24" fill="none">
  <path d="M12.0521 1.51331C6.30504 1.50732 1.62024 6.16069 1.62024 11.8916C1.62024 13.8497 2.1677 15.7615 3.21557 17.4163C3.21588 17.4168 3.21618 17.4173 3.21649 17.4178L3.33358 17.6054L2.38888 21.0385L2.15906 21.8736L2.99721 21.6549L6.55317 20.727L6.73399 20.8356L6.73689 20.8373C8.33933 21.7846 10.1747 22.2811 12.0442 22.2871H12.0458H12.0515C17.7981 22.2871 22.4829 17.6341 22.4829 11.903C22.4829 9.12907 21.3982 6.52093 19.4306 4.55679C17.4623 2.59186 14.8366 1.51344 12.0521 1.51331ZM12.0521 1.51331L12.0515 2.01331V1.51331C12.0517 1.51331 12.0519 1.51331 12.0521 1.51331ZM0.71231 23.2962L2.17822 17.9731L2.23391 17.7709L2.12867 17.5894C1.12424 15.8578 0.597541 13.8973 0.603031 11.893V11.8916C0.603031 5.61125 5.7407 0.5 12.0515 0.5C15.1177 0.5 17.9933 1.68569 20.1512 3.83874L20.1516 3.83919C22.3155 5.99277 23.5056 8.85367 23.5001 11.8964V11.8973C23.5001 18.1776 18.3625 23.289 12.0458 23.289H12.0401C10.1236 23.289 8.23978 22.808 6.56472 21.9007L6.39091 21.8065L6.1997 21.8567L0.71231 23.2962Z" fill="white" stroke="white"/>
  <path d="M1.13048 22.8805L2.53923 17.7675L2.59513 17.5646L2.48913 17.3828C1.51962 15.7201 1.00994 13.8281 1.0099 11.8972C1.01552 5.84447 5.96453 0.916016 12.0515 0.916016C15.0082 0.916016 17.7754 2.06141 19.8594 4.13543C21.9427 6.20883 23.0874 8.96719 23.0874 11.9027C23.0874 17.955 18.1332 22.8837 12.0515 22.8837H12.0458C10.1981 22.8837 8.38304 22.4198 6.771 21.5467L6.59747 21.4527L6.40653 21.5026L1.13048 22.8805Z" fill="url(#paint0_linear_1371_3731)" stroke="white"/>
  <path d="M12.0521 1.51331C6.30504 1.50732 1.62024 6.16069 1.62024 11.8916C1.62024 13.8497 2.1677 15.7615 3.21557 17.4163C3.21588 17.4168 3.21618 17.4173 3.21649 17.4178L3.33358 17.6054L2.38888 21.0385L2.15906 21.8736L2.99721 21.6549L6.55317 20.727L6.73399 20.8356L6.73689 20.8373C8.33933 21.7846 10.1747 22.2811 12.0442 22.2871H12.0458H12.0515C17.7981 22.2871 22.4829 17.6341 22.4829 11.903C22.4829 9.12907 21.3982 6.52093 19.4306 4.55679C17.4623 2.59186 14.8366 1.51344 12.0521 1.51331ZM12.0521 1.51331L12.0515 2.01331V1.51331C12.0517 1.51331 12.0519 1.51331 12.0521 1.51331ZM0.71231 23.2962L2.17822 17.9731L2.23391 17.7709L2.12867 17.5894C1.12424 15.8578 0.597541 13.8973 0.603031 11.893V11.8916C0.603031 5.61125 5.7407 0.5 12.0515 0.5C15.1177 0.5 17.9933 1.68569 20.1512 3.83874L20.1516 3.83919C22.3155 5.99277 23.5056 8.85367 23.5001 11.8964V11.8973C23.5001 18.1776 18.3625 23.289 12.0458 23.289H12.0401C10.1236 23.289 8.23978 22.808 6.56472 21.9007L6.39091 21.8065L6.1997 21.8567L0.71231 23.2962Z" fill="url(#paint1_linear_1371_3731)" stroke="white"/>
  <path d="M8.37871 6.90496L8.37871 6.90497L8.38185 6.90506C8.44487 6.90675 8.46903 6.90994 8.47662 6.91137C8.4876 6.91975 8.5385 6.96548 8.60973 7.12353C8.73745 7.40817 8.94585 7.91388 9.13545 8.37594C9.15165 8.41541 9.16769 8.45453 9.18352 8.49311C9.25943 8.67817 9.33026 8.85087 9.38811 8.99023C9.45014 9.13967 9.50995 9.2823 9.5424 9.34605C9.5618 9.38493 9.56584 9.40335 9.56665 9.40861C9.56606 9.41054 9.56473 9.41421 9.56201 9.41979C9.54978 9.44483 9.53867 9.46777 9.52841 9.48894C9.45 9.65073 9.42201 9.70848 9.33628 9.80692L9.71335 10.1353L9.33628 9.80692C9.26011 9.8944 9.19534 9.97307 9.13733 10.0435C9.05333 10.1456 8.98348 10.2304 8.91365 10.2999L9.26636 10.6543L8.91365 10.2999C8.91029 10.3032 8.90663 10.3069 8.90269 10.3107C8.83548 10.3771 8.68787 10.5229 8.61193 10.7254C8.5135 10.988 8.55651 11.2587 8.70198 11.5096C8.88351 11.8228 9.51675 12.8516 10.464 13.6913C11.4889 14.6036 12.4057 14.9963 12.8107 15.1697C12.882 15.2003 12.9375 15.224 12.9749 15.2426C13.1568 15.3331 13.3812 15.4138 13.627 15.385C13.8949 15.3535 14.0874 15.2058 14.2241 15.0471C14.3837 14.8617 14.9709 14.1795 15.1976 13.8481C15.2021 13.8495 15.2068 13.8509 15.2117 13.8525C15.2345 13.8596 15.2598 13.8682 15.2901 13.8789C15.4055 13.9228 15.8097 14.1125 16.2559 14.3273C16.6926 14.5375 17.1319 14.7532 17.2786 14.8263C17.341 14.8573 17.4002 14.8857 17.4514 14.9102C17.4646 14.9166 17.4773 14.9227 17.4894 14.9285C17.5433 14.9544 17.5842 14.9745 17.6176 14.9922C17.6187 15.04 17.6171 15.1021 17.6107 15.1772C17.5928 15.3858 17.5403 15.6655 17.4319 15.972C17.3634 16.1591 17.1149 16.4239 16.7331 16.6693C16.3571 16.9111 15.9953 17.0428 15.8384 17.0576C15.7735 17.0638 15.714 17.0709 15.6563 17.0778C15.4392 17.1037 15.2492 17.1264 14.9014 17.0804C14.4474 17.0204 13.7313 16.8385 12.4867 16.3487L12.4866 16.3487C9.84797 15.3112 8.08883 12.7346 7.67975 12.1354C7.6442 12.0833 7.61885 12.0462 7.604 12.0263C7.60215 12.0238 7.60015 12.0212 7.59802 12.0183C7.5185 11.9119 7.24205 11.542 6.9824 11.0336C6.71208 10.5043 6.48267 9.86797 6.48267 9.25125C6.48267 8.07258 7.0448 7.47807 7.33763 7.16839C7.35711 7.14778 7.3754 7.12844 7.39225 7.11027C7.55717 6.93246 7.73616 6.89954 7.82222 6.89954C8.02511 6.89954 8.21675 6.89959 8.37871 6.90496ZM8.47957 6.91211C8.47945 6.91213 8.4787 6.91197 8.47769 6.91159L8.47957 6.91211ZM17.61 14.9005C17.61 14.9005 17.6105 14.9022 17.6111 14.9059C17.6102 14.9025 17.6099 14.9006 17.61 14.9005Z" fill="white" stroke="white"/>
  <defs>
    <linearGradient id="paint0_linear_1371_3731" x1="12.0022" y1="23.5822" x2="12.0022" y2="0.415205" gradientUnits="userSpaceOnUse">
      <stop stop-color="#20B038"/>
      <stop offset="1" stop-color="#60D66A"/>
    </linearGradient>
    <linearGradient id="paint1_linear_1371_3731" x1="12.0023" y1="23.9977" x2="12.0023" y2="0" gradientUnits="userSpaceOnUse">
      <stop stop-color="#F9F9F9"/>
      <stop offset="1" stop-color="white"/>
    </linearGradient>
  </defs>
</svg>